<?xml version="1.0" encoding="UTF-8" standalone="no"?>
<svg
   xmlns:dc="http://purl.org/dc/elements/1.1/"
   xmlns:cc="http://creativecommons.org/ns#"
   xmlns:rdf="http://www.w3.org/1999/02/22-rdf-syntax-ns#"
   xmlns:svg="http://www.w3.org/2000/svg"
   xmlns="http://www.w3.org/2000/svg"
   xmlns:sodipodi="http://sodipodi.sourceforge.net/DTD/sodipodi-0.dtd"
   xmlns:inkscape="http://www.inkscape.org/namespaces/inkscape"
   version="1.1"
   id="svg3461"
   viewBox="0 0 1281 351.02608"
   height="99.067368mm"
   width="361.52667mm"
   inkscape:version="0.91 r13725"
   sodipodi:docname="header_quote5.svg">
  <sodipodi:namedview
     pagecolor="#ffffff"
     bordercolor="#666666"
     borderopacity="1"
     objecttolerance="10"
     gridtolerance="10"
     guidetolerance="10"
     inkscape:pageopacity="0"
     inkscape:pageshadow="2"
     inkscape:window-width="1279"
     inkscape:window-height="744"
     id="namedview3420"
     showgrid="false"
     inkscape:zoom="0.63037928"
     inkscape:cx="503.46811"
     inkscape:cy="150.69199"
     inkscape:window-x="0"
     inkscape:window-y="0"
     inkscape:window-maximized="0"
     inkscape:current-layer="layer2"
     fit-margin-top="0"
     fit-margin-left="0"
     fit-margin-right="0"
     fit-margin-bottom="0" />
  <defs
     id="defs3463" />
  <metadata
     id="metadata3466">
    <rdf:RDF>
      <cc:Work
         rdf:about="">
        <dc:format>image/svg+xml</dc:format>
        <dc:type
           rdf:resource="http://purl.org/dc/dcmitype/StillImage" />
        <dc:title></dc:title>
      </cc:Work>
    </rdf:RDF>
  </metadata>
  <g
     transform="translate(0.5,0.49998474)"
     id="layer1">
    <path
       id="path4281"
       d="M 0,0 0,221 435.2,350 1280,44.2 1280,0 Z"
       style="opacity:0.42000002;fill:#000000;fill-rule:evenodd;stroke:#000000;stroke-width:1px;stroke-linecap:butt;stroke-linejoin:miter;stroke-opacity:0.1"
       inkscape:connector-curvature="0" />
  </g>
  <g
     inkscape:groupmode="layer"
     id="layer2"
     inkscape:label="Layer 1"
     transform="translate(0,-1.5258789e-5)">
    <g
       id="text4283"
       style="font-style:normal;font-weight:normal;font-size:131.34811401px;line-height:86.00000143%;font-family:sans-serif;letter-spacing:0px;word-spacing:0px;fill:#ffffff;fill-opacity:1;stroke:none;stroke-width:1px;stroke-linecap:butt;stroke-linejoin:miter;stroke-opacity:1"
       transform="matrix(0.76755971,0,0,1.3028302,-107.37157,-13.777119)">
      <path
         id="path4318"
         style="font-style:normal;font-variant:normal;font-weight:bold;font-stretch:normal;font-size:76.27687073px;line-height:86.00000143%;font-family:sans-serif;-inkscape-font-specification:'sans-serif, Bold';text-align:start;letter-spacing:-3.62315154px;writing-mode:lr-tb;text-anchor:start;fill:#ffffff"
         d="m 296.7348,51.640796 q 3.38926,0 5.13975,-1.489782 1.75049,-1.489783 1.75049,-4.394859 0,-2.867832 -1.75049,-4.357614 -1.75049,-1.527028 -5.13975,-1.527028 l -7.93309,0 0,11.769283 7.93309,0 z m 0.48418,24.320702 q 4.32037,0 6.48055,-1.824984 2.19743,-1.824984 2.19743,-5.512196 0,-3.612723 -2.16018,-5.400462 -2.16019,-1.824983 -6.5178,-1.824983 l -8.41727,0 0,14.562625 8.41727,0 z m 13.33355,-20.000332 q 4.61833,1.340804 7.15096,4.953527 2.53263,3.612723 2.53263,8.864207 0,8.044826 -5.43771,11.99275 -5.4377,3.947924 -16.53658,3.947924 l -23.79928,0 0,-55.606137 21.52736,0 q 11.58306,0 16.76005,3.500989 5.21424,3.50099 5.21424,11.210615 0,4.059657 -1.89947,6.927489 -1.89947,2.830587 -5.5122,4.208636 z"
         inkscape:connector-curvature="0" />
      <path
         id="path4320"
         style="font-style:normal;font-variant:normal;font-weight:bold;font-stretch:normal;font-size:76.27687073px;line-height:86.00000143%;font-family:sans-serif;-inkscape-font-specification:'sans-serif, Bold';text-align:start;letter-spacing:-3.62315154px;writing-mode:lr-tb;text-anchor:start;fill:#ffffff"
         d="m 349.3137,54.76934 q 4.50659,0 6.44331,-1.676006 1.97396,-1.676005 1.97396,-5.512195 0,-3.798946 -1.97396,-5.437707 -1.93672,-1.638761 -6.44331,-1.638761 l -6.03362,0 0,14.264669 6.03362,0 z m -6.03362,9.907054 0,21.04318 -14.33916,0 0,-55.606137 21.89981,0 q 10.98715,0 16.08965,3.687212 5.13975,3.687212 5.13975,11.657549 0,5.512196 -2.68161,9.05043 -2.64436,3.538234 -8.00758,5.214239 2.94232,0.670402 5.25148,3.054054 2.34641,2.346408 4.73006,7.150957 l 7.78412,15.791696 -15.27027,0 -6.77851,-13.817734 q -2.04846,-4.171391 -4.1714,-5.698418 -2.08569,-1.527028 -5.58668,-1.527028 l -4.05966,0 z"
         inkscape:connector-curvature="0" />
      <path
         id="path4322"
         style="font-style:normal;font-variant:normal;font-weight:bold;font-stretch:normal;font-size:76.27687073px;line-height:86.00000143%;font-family:sans-serif;-inkscape-font-specification:'sans-serif, Bold';text-align:start;letter-spacing:-3.62315154px;writing-mode:lr-tb;text-anchor:start;fill:#ffffff"
         d="m 384.01521,30.113437 14.33916,0 0,55.606137 -14.33916,0 0,-55.606137 z"
         inkscape:connector-curvature="0" />
      <path
         id="path4324"
         style="font-style:normal;font-variant:normal;font-weight:bold;font-stretch:normal;font-size:76.27687073px;line-height:86.00000143%;font-family:sans-serif;-inkscape-font-specification:'sans-serif, Bold';text-align:start;letter-spacing:-3.62315154px;writing-mode:lr-tb;text-anchor:start;fill:#ffffff"
         d="m 408.69793,30.113437 16.01517,0 20.22379,38.138436 0,-38.138436 13.59427,0 0,55.606137 -16.01516,0 -20.2238,-38.138435 0,38.138435 -13.59427,0 0,-55.606137 z"
         inkscape:connector-curvature="0" />
      <path
         id="path4326"
         style="font-style:normal;font-variant:normal;font-weight:bold;font-stretch:normal;font-size:76.27687073px;line-height:86.00000143%;font-family:sans-serif;-inkscape-font-specification:'sans-serif, Bold';text-align:start;letter-spacing:-3.62315154px;writing-mode:lr-tb;text-anchor:start;fill:#ffffff"
         d="m 518.81968,81.585427 q -5.36322,2.60712 -11.13612,3.91068 -5.77291,1.303559 -11.91827,1.303559 -13.89222,0 -22.01153,-7.746869 -8.11932,-7.784115 -8.11932,-21.080425 0,-13.445288 8.26829,-21.154913 8.2683,-7.709625 22.6447,-7.709625 5.54944,0 10.6147,1.042848 5.10251,1.042848 9.6091,3.091299 l 0,11.508571 q -4.65557,-2.644365 -9.2739,-3.947924 -4.58108,-1.30356 -9.19941,-1.30356 -8.56625,0 -13.22182,4.804549 -4.61832,4.767304 -4.61832,13.668755 0,8.826963 4.46935,13.631512 4.46934,4.804549 12.70039,4.804549 2.23468,0 4.13415,-0.260712 1.93672,-0.297957 3.46374,-0.89387 l 0,-10.800924 -8.75247,0 0,-9.609098 22.34674,0 0,26.741598 z"
         inkscape:connector-curvature="0" />
      <path
         id="path4328"
         style="font-style:normal;font-variant:normal;font-weight:bold;font-stretch:normal;font-size:76.27687073px;line-height:86.00000143%;font-family:sans-serif;-inkscape-font-specification:'sans-serif, Bold';text-align:start;letter-spacing:-3.62315154px;writing-mode:lr-tb;text-anchor:start;fill:#ffffff"
         d="m 572.95242,51.640796 q 3.38926,0 5.13975,-1.489782 1.7505,-1.489783 1.7505,-4.394859 0,-2.867832 -1.7505,-4.357614 -1.75049,-1.527028 -5.13975,-1.527028 l -7.93309,0 0,11.769283 7.93309,0 z m 0.48418,24.320702 q 4.32037,0 6.48055,-1.824984 2.19743,-1.824984 2.19743,-5.512196 0,-3.612723 -2.16018,-5.400462 -2.16019,-1.824983 -6.5178,-1.824983 l -8.41727,0 0,14.562625 8.41727,0 z m 13.33355,-20.000332 q 4.61833,1.340804 7.15096,4.953527 2.53263,3.612723 2.53263,8.864207 0,8.044826 -5.4377,11.99275 -5.43771,3.947924 -16.53659,3.947924 l -23.79928,0 0,-55.606137 21.52736,0 q 11.58306,0 16.76005,3.500989 5.21424,3.50099 5.21424,11.210615 0,4.059657 -1.89947,6.927489 -1.89947,2.830587 -5.5122,4.208636 z"
         inkscape:connector-curvature="0" />
      <path
         id="path4330"
         style="font-style:normal;font-variant:normal;font-weight:bold;font-stretch:normal;font-size:76.27687073px;line-height:86.00000143%;font-family:sans-serif;-inkscape-font-specification:'sans-serif, Bold';text-align:start;letter-spacing:-3.62315154px;writing-mode:lr-tb;text-anchor:start;fill:#ffffff"
         d="m 638.90211,75.589052 -22.42123,0 -3.53823,10.130522 -14.41365,0 20.59625,-55.606137 17.09525,0 20.59625,55.606137 -14.41365,0 -3.50099,-10.130522 z m -18.84575,-10.316745 15.23303,0 -7.59789,-22.123272 -7.63514,22.123272 z"
         inkscape:connector-curvature="0" />
      <path
         id="path4332"
         style="font-style:normal;font-variant:normal;font-weight:bold;font-stretch:normal;font-size:76.27687073px;line-height:86.00000143%;font-family:sans-serif;-inkscape-font-specification:'sans-serif, Bold';text-align:start;letter-spacing:-3.62315154px;writing-mode:lr-tb;text-anchor:start;fill:#ffffff"
         d="m 704.62835,82.66552 q -3.94792,2.048451 -8.23105,3.091299 -4.28312,1.042847 -8.93869,1.042847 -13.89223,0 -22.01154,-7.746869 -8.11932,-7.784115 -8.11932,-21.080425 0,-13.333554 8.11932,-21.080424 8.11931,-7.784114 22.01154,-7.784114 4.65557,0 8.93869,1.042848 4.28313,1.042848 8.23105,3.091299 l 0,11.508571 q -3.98517,-2.718854 -7.8586,-3.985169 -3.87344,-1.266315 -8.15656,-1.266315 -7.67238,0 -12.06724,4.916283 -4.39486,4.916282 -4.39486,13.557021 0,8.603495 4.39486,13.519778 4.39486,4.916283 12.06724,4.916283 4.28312,0 8.15656,-1.266316 3.87343,-1.266315 7.8586,-3.985168 l 0,11.508571 z"
         inkscape:connector-curvature="0" />
      <path
         id="path4334"
         style="font-style:normal;font-variant:normal;font-weight:bold;font-stretch:normal;font-size:76.27687073px;line-height:86.00000143%;font-family:sans-serif;-inkscape-font-specification:'sans-serif, Bold';text-align:start;letter-spacing:-3.62315154px;writing-mode:lr-tb;text-anchor:start;fill:#ffffff"
         d="m 712.77447,30.113437 14.33916,0 0,20.298289 20.67073,-20.298289 16.64832,0 -26.77884,26.331908 29.53494,29.274229 -17.95188,0 -22.12327,-21.899805 0,21.899805 -14.33916,0 0,-55.606137 z"
         inkscape:connector-curvature="0" />
      <path
         id="path4336"
         style="font-style:normal;font-variant:normal;font-weight:bold;font-stretch:normal;font-size:133.48454285px;line-height:86.00000143%;font-family:sans-serif;-inkscape-font-specification:'sans-serif, Bold';text-align:start;letter-spacing:-3.62315154px;writing-mode:lr-tb;text-anchor:start;fill:#ffffff"
         d="m 353.67952,93.23786 89.68493,0 0,18.9668 -32.26311,0 0,78.34395 -25.09353,0 0,-78.34395 -32.32829,0 0,-18.9668 z"
         inkscape:connector-curvature="0" />
      <path
         id="path4338"
         style="font-style:normal;font-variant:normal;font-weight:bold;font-stretch:normal;font-size:133.48454285px;line-height:86.00000143%;font-family:sans-serif;-inkscape-font-specification:'sans-serif, Bold';text-align:start;letter-spacing:-3.62315154px;writing-mode:lr-tb;text-anchor:start;fill:#ffffff"
         d="m 452.64653,93.23786 25.09353,0 0,37.08628 37.0211,0 0,-37.08628 25.09353,0 0,97.31075 -25.09353,0 0,-41.25767 -37.0211,0 0,41.25767 -25.09353,0 0,-97.31075 z"
         inkscape:connector-curvature="0" />
      <path
         id="path4340"
         style="font-style:normal;font-variant:normal;font-weight:bold;font-stretch:normal;font-size:133.48454285px;line-height:86.00000143%;font-family:sans-serif;-inkscape-font-specification:'sans-serif, Bold';text-align:start;letter-spacing:-3.62315154px;writing-mode:lr-tb;text-anchor:start;fill:#ffffff"
         d="m 560.60811,93.23786 67.71994,0 0,18.9668 -42.62641,0 0,18.11948 40.08447,0 0,18.9668 -40.08447,0 0,22.29088 44.06033,0 0,18.96679 -69.15386,0 0,-97.31075 z"
         inkscape:connector-curvature="0" />
      <path
         id="path4342"
         style="font-style:normal;font-variant:normal;font-weight:bold;font-stretch:normal;font-size:133.48454285px;line-height:86.00000143%;font-family:sans-serif;-inkscape-font-specification:'sans-serif, Bold';text-align:start;letter-spacing:-3.62315154px;writing-mode:lr-tb;text-anchor:start;fill:#ffffff"
         d="m 691.01775,93.23786 25.09353,0 0,37.08628 37.0211,0 0,-37.08628 25.09353,0 0,97.31075 -25.09353,0 0,-41.25767 -37.0211,0 0,41.25767 -25.09353,0 0,-97.31075 z"
         inkscape:connector-curvature="0" />
      <path
         id="path4344"
         style="font-style:normal;font-variant:normal;font-weight:bold;font-stretch:normal;font-size:133.48454285px;line-height:86.00000143%;font-family:sans-serif;-inkscape-font-specification:'sans-serif, Bold';text-align:start;letter-spacing:-3.62315154px;writing-mode:lr-tb;text-anchor:start;fill:#ffffff"
         d="m 858.03062,172.8202 -39.23715,0 -6.19191,17.72841 -25.22389,0 36.04343,-97.31075 29.91671,0 36.04343,97.31075 -25.22389,0 -6.12673,-17.72841 z m -32.98007,-18.05431 26.65781,0 -13.29632,-38.71573 -13.36149,38.71573 z"
         inkscape:connector-curvature="0" />
      <path
         id="path4346"
         style="font-style:normal;font-variant:normal;font-weight:bold;font-stretch:normal;font-size:133.48454285px;line-height:86.00000143%;font-family:sans-serif;-inkscape-font-specification:'sans-serif, Bold';text-align:start;letter-spacing:-3.62315154px;writing-mode:lr-tb;text-anchor:start;fill:#ffffff"
         d="m 975.76888,185.20402 q -6.90887,3.58479 -14.40434,5.40977 -7.49547,1.82499 -15.64272,1.82499 -24.31139,0 -38.52019,-13.55703 -14.20881,-13.6222 -14.20881,-36.89075 0,-23.33372 14.20881,-36.89074 14.2088,-13.622206 38.52019,-13.622206 8.14725,0 15.64272,1.824984 7.49547,1.824984 14.40434,5.409774 l 0,20.139998 q -6.97405,-4.75799 -13.75256,-6.97404 -6.77851,-2.21605 -14.27398,-2.21605 -13.42667,0 -21.11767,8.60349 -7.691,8.6035 -7.691,23.72479 0,15.05612 7.691,23.65962 7.691,8.60349 21.11767,8.60349 7.49547,0 14.27398,-2.21605 6.77851,-2.21605 13.75256,-6.97404 l 0,20.14 z"
         inkscape:connector-curvature="0" />
      <path
         id="path4348"
         style="font-style:normal;font-variant:normal;font-weight:bold;font-stretch:normal;font-size:133.48454285px;line-height:86.00000143%;font-family:sans-serif;-inkscape-font-specification:'sans-serif, Bold';text-align:start;letter-spacing:-3.62315154px;writing-mode:lr-tb;text-anchor:start;fill:#ffffff"
         d="m 992.74199,93.23786 25.09351,0 0,35.52201 36.1738,-35.52201 29.1346,0 -46.863,46.08085 51.6861,51.2299 -31.4157,0 -38.7158,-38.32466 0,38.32466 -25.09351,0 0,-97.31075 z"
         inkscape:connector-curvature="0" />
    </g>
  </g>
</svg>
